<?xml version="1.0" encoding="UTF-8"?>
<svg version="1.1" xmlns="http://www.w3.org/2000/svg" width="250" height="45">
<path d="M0 0 C1.03769531 -0.02900391 2.07539063 -0.05800781 3.14453125 -0.08789062 C9.32358756 -0.13918547 13.08927833 0.09751849 17.75 4.3125 C19.63519529 8.08289057 18.93475994 12.66404595 18.9375 16.8125 C18.94974609 17.78832031 18.96199219 18.76414062 18.97460938 19.76953125 C18.97654297 20.70152344 18.97847656 21.63351563 18.98046875 22.59375 C18.98457764 23.45033203 18.98868652 24.30691406 18.99291992 25.18945312 C18.75 27.3125 18.75 27.3125 16.75 29.3125 C13.21428571 28.77678571 13.21428571 28.77678571 11.75 27.3125 C11.66330568 25.8237814 11.64296506 24.331055 11.65234375 22.83984375 C11.65556641 21.94072266 11.65878906 21.04160156 11.66210938 20.11523438 C11.67048828 19.16970703 11.67886719 18.22417969 11.6875 17.25 C11.69201172 16.30060547 11.69652344 15.35121094 11.70117188 14.37304688 C11.7129989 12.01946935 11.72947975 9.66601523 11.75 7.3125 C10.1 7.3125 8.45 7.3125 6.75 7.3125 C6.80800781 8.32570313 6.86601562 9.33890625 6.92578125 10.3828125 C7.43362311 22.55737361 7.43362311 22.55737361 5.1875 26.25 C1.35772396 29.75785284 -4.79224181 28.99712673 -9.65625 29.01171875 C-14.17211224 28.13308903 -15.63541992 27.08637502 -18.25 23.3125 C-18.94088122 20.44825191 -18.95102569 17.74709162 -18.875 14.8125 C-18.89433594 14.06613281 -18.91367188 13.31976563 -18.93359375 12.55078125 C-18.89614583 8.31916596 -18.5994007 6.74218371 -15.8359375 3.34375 C-10.80196926 -0.61042445 -6.21737561 0.05707505 0 0 Z M-11.25 7.3125 C-11.25 11.9325 -11.25 16.5525 -11.25 21.3125 C-7.62 21.3125 -3.99 21.3125 -0.25 21.3125 C-0.25 16.6925 -0.25 12.0725 -0.25 7.3125 C-3.88 7.3125 -7.51 7.3125 -11.25 7.3125 Z " fill="#3B73FE" transform="translate(201.25,7.6875)"/>
<path d="M0 0 C1.50336914 -0.00580078 1.50336914 -0.00580078 3.03710938 -0.01171875 C4.59848633 0.00568359 4.59848633 0.00568359 6.19140625 0.0234375 C7.22845703 0.01183594 8.26550781 0.00023437 9.33398438 -0.01171875 C16.00404215 0.01398475 19.90867207 0.55320332 24.75390625 5.3984375 C24.98095703 7.73681641 24.98095703 7.73681641 24.94921875 10.625 C24.94277344 11.65625 24.93632813 12.6875 24.9296875 13.75 C24.91292969 14.83023437 24.89617187 15.91046875 24.87890625 17.0234375 C24.86988281 18.11140625 24.86085937 19.199375 24.8515625 20.3203125 C24.82794034 23.01323902 24.79500181 25.70573005 24.75390625 28.3984375 C22.94140625 29.0859375 22.94140625 29.0859375 20.75390625 29.3984375 C19.0222168 28.2253418 19.0222168 28.2253418 17.75390625 26.3984375 C17.41333008 24.40551758 17.41333008 24.40551758 17.4609375 22.16796875 C17.47060547 21.36552734 17.48027344 20.56308594 17.49023438 19.73632812 C17.51537109 18.90294922 17.54050781 18.06957031 17.56640625 17.2109375 C17.57994141 16.36595703 17.59347656 15.52097656 17.60742188 14.65039062 C17.64274826 12.56613366 17.69655486 10.48220473 17.75390625 8.3984375 C15.27890625 7.9034375 15.27890625 7.9034375 12.75390625 7.3984375 C12.81191406 8.49542969 12.86992188 9.59242187 12.9296875 10.72265625 C12.97660313 12.17704064 13.02210136 13.63147124 13.06640625 15.0859375 C13.10830078 15.80716797 13.15019531 16.52839844 13.19335938 17.27148438 C13.28517175 21.29286627 13.04370328 22.98304363 10.671875 26.3828125 C7.09445851 28.85395963 5.07163235 29.04003378 0.75390625 28.9609375 C-0.44234375 28.96222656 -1.63859375 28.96351562 -2.87109375 28.96484375 C-6.7945208 28.30639824 -8.4732586 27.20695252 -11.24609375 24.3984375 C-12.34721064 21.09508684 -12.44835903 18.50011613 -12.49609375 15.0234375 C-12.521875 13.90195312 -12.54765625 12.78046875 -12.57421875 11.625 C-12.1280869 7.23803685 -10.71411418 4.73179378 -7.46557617 1.78125 C-4.77315199 0.10377881 -3.15426325 0.01171863 0 0 Z M-5.24609375 7.3984375 C-5.24609375 12.0184375 -5.24609375 16.6384375 -5.24609375 21.3984375 C-1.61609375 21.3984375 2.01390625 21.3984375 5.75390625 21.3984375 C5.75390625 16.7784375 5.75390625 12.1584375 5.75390625 7.3984375 C2.12390625 7.3984375 -1.50609375 7.3984375 -5.24609375 7.3984375 Z " fill="#3B73FE" transform="translate(67.24609375,7.6015625)"/>
<path d="M0 0 C0.71994141 -0.01611328 1.43988281 -0.03222656 2.18164062 -0.04882812 C5.18233087 -0.05161428 7.40522619 -0.01575235 9.99609375 1.58203125 C10.9375 3.3125 10.9375 3.3125 9.9375 7.3125 C3.9975 7.3125 -1.9425 7.3125 -8.0625 7.3125 C-8.0625 7.9725 -8.0625 8.6325 -8.0625 9.3125 C-7.03769531 9.27769531 -6.01289063 9.24289063 -4.95703125 9.20703125 C-3.59637064 9.17887965 -2.2356922 9.15158096 -0.875 9.125 C-0.20146484 9.09986328 0.47207031 9.07472656 1.16601562 9.04882812 C5.64065376 8.98334562 8.38920295 9.55711849 11.9375 12.3125 C13.81794634 15.38959402 13.93864202 17.24740476 13.875 20.875 C12.9375 24.3125 12.9375 24.3125 11.1171875 26.51171875 C6.24855731 29.26901423 1.6127679 28.73682128 -3.875 28.5625 C-4.94943359 28.54445313 -6.02386719 28.52640625 -7.13085938 28.5078125 C-9.77565465 28.46079392 -12.41861589 28.3950916 -15.0625 28.3125 C-15.14995946 24.9168303 -15.20304444 21.52145227 -15.25 18.125 C-15.27513672 17.16529297 -15.30027344 16.20558594 -15.32617188 15.21679688 C-15.42103221 6.07858444 -15.42103221 6.07858444 -12.0625 2.3125 C-8.51514675 -0.41180145 -4.28728353 -0.01929471 0 0 Z M-8.0625 16.3125 C-8.0625 17.9625 -8.0625 19.6125 -8.0625 21.3125 C-3.1125 21.3125 1.8375 21.3125 6.9375 21.3125 C6.9375 20.3225 6.9375 19.3325 6.9375 18.3125 C5.54724609 18.32990234 5.54724609 18.32990234 4.12890625 18.34765625 C2.93136719 18.35667969 1.73382813 18.36570312 0.5 18.375 C-0.69496094 18.38660156 -1.88992187 18.39820313 -3.12109375 18.41015625 C-6.0625 18.3125 -6.0625 18.3125 -7.0625 17.3125 C-2.4425 17.3125 2.1775 17.3125 6.9375 17.3125 C6.9375 16.9825 6.9375 16.6525 6.9375 16.3125 C1.9875 16.3125 -2.9625 16.3125 -8.0625 16.3125 Z " fill="#3B73FE" transform="translate(140.0625,7.6875)"/>
<path d="M0 0 C1.30710937 -0.03738281 2.61421875 -0.07476563 3.9609375 -0.11328125 C8.13861607 0.3721846 9.70164569 1.36177346 12.625 4.3125 C13.8513757 6.76525141 13.73915314 8.3630781 13.72265625 11.1015625 C13.71943359 12.04257812 13.71621094 12.98359375 13.71289062 13.953125 C13.70451172 14.93796875 13.69613281 15.9228125 13.6875 16.9375 C13.68298828 17.93007813 13.67847656 18.92265625 13.67382812 19.9453125 C13.66202145 22.4011016 13.645554 24.85677104 13.625 27.3125 C11.645 28.3025 11.645 28.3025 9.625 29.3125 C8.635 28.6525 7.645 27.9925 6.625 27.3125 C6.28442383 25.24951172 6.28442383 25.24951172 6.33203125 22.7421875 C6.34169922 21.84628906 6.35136719 20.95039063 6.36132812 20.02734375 C6.38646484 19.09019531 6.41160156 18.15304688 6.4375 17.1875 C6.45780273 15.77017578 6.45780273 15.77017578 6.47851562 14.32421875 C6.51393201 11.98673747 6.5677402 9.64954822 6.625 7.3125 C2.005 7.3125 -2.615 7.3125 -7.375 7.3125 C-7.34019531 8.64925781 -7.30539063 9.98601563 -7.26953125 11.36328125 C-7.24139392 13.11717495 -7.2140937 14.87108222 -7.1875 16.625 C-7.16236328 17.50607422 -7.13722656 18.38714844 -7.11132812 19.29492188 C-7.10166016 20.14248047 -7.09199219 20.99003906 -7.08203125 21.86328125 C-7.0663208 22.64356689 -7.05061035 23.42385254 -7.03442383 24.2277832 C-7.45652696 26.81153853 -8.38989942 27.67542167 -10.375 29.3125 C-11.695 28.6525 -13.015 27.9925 -14.375 27.3125 C-14.49160824 23.91695765 -14.56238372 20.52193321 -14.625 17.125 C-14.65851563 16.16529297 -14.69203125 15.20558594 -14.7265625 14.21679688 C-14.82534943 7.07944123 -14.82534943 7.07944123 -12.546875 3.19921875 C-8.67864708 -0.16113032 -4.95297947 0.09244264 0 0 Z " fill="#3C74FE" transform="translate(109.375,7.6875)"/>
<path d="M0 0 C1.29808594 -0.01675781 2.59617188 -0.03351562 3.93359375 -0.05078125 C7.70829685 0.32709538 9.58227764 1.02302076 12.5625 3.3125 C13.84111615 5.86973229 13.67586609 7.67987102 13.66015625 10.5390625 C13.65693359 11.5703125 13.65371094 12.6015625 13.65039062 13.6640625 C13.64201172 14.74429687 13.63363281 15.82453125 13.625 16.9375 C13.62048828 18.02546875 13.61597656 19.1134375 13.61132812 20.234375 C13.59951776 22.92713789 13.58304778 25.61979188 13.5625 28.3125 C11.6875 28.9375 11.6875 28.9375 9.5625 29.3125 C7.5625 27.3125 7.5625 27.3125 7.33544922 25.24951172 C7.34592285 24.42209473 7.35639648 23.59467773 7.3671875 22.7421875 C7.37363281 21.84628906 7.38007813 20.95039063 7.38671875 20.02734375 C7.40347656 19.09019531 7.42023438 18.15304688 7.4375 17.1875 C7.44652344 16.24261719 7.45554688 15.29773437 7.46484375 14.32421875 C7.48845332 11.98687173 7.52432506 9.64965451 7.5625 7.3125 C2.6125 7.3125 -2.3375 7.3125 -7.4375 7.3125 C-7.4375 13.9125 -7.4375 20.5125 -7.4375 27.3125 C-9.4175 28.3025 -9.4175 28.3025 -11.4375 29.3125 C-12.4275 28.6525 -13.4175 27.9925 -14.4375 27.3125 C-14.82568359 25.32885742 -14.82568359 25.32885742 -14.8359375 22.91796875 C-14.83980469 22.04462891 -14.84367188 21.17128906 -14.84765625 20.27148438 C-14.83605469 19.35689453 -14.82445312 18.44230469 -14.8125 17.5 C-14.82410156 16.59701172 -14.83570313 15.69402344 -14.84765625 14.76367188 C-14.82608587 9.87078971 -14.79041522 6.17366255 -11.4375 2.3125 C-7.95810362 -0.29901973 -4.22696398 0.01256778 0 0 Z " fill="#3B73FE" transform="translate(236.4375,7.6875)"/>
<path d="M0 0 C3.06303578 -0.08115993 6.12390815 -0.14057409 9.1875 -0.1875 C10.48397461 -0.22520508 10.48397461 -0.22520508 11.80664062 -0.26367188 C16.65857492 -0.31944123 20.15424376 -0.32303209 24 3 C26.57190339 6.45526231 26.36633055 10.1801886 26.4375 14.375 C26.47746094 15.66148438 26.51742187 16.94796875 26.55859375 18.2734375 C26.01590665 21.89388149 25.32486541 24.20784016 22.77612305 26.90576172 C18.9703481 29.25043297 14.49796694 28.60080015 10.1875 28.375 C9.20845703 28.34792969 8.22941406 28.32085937 7.22070312 28.29296875 C4.81153379 28.22245648 2.40691181 28.12398568 0 28 C0 25.69 0 23.38 0 21 C6.27 21 12.54 21 19 21 C19 16.38 19 11.76 19 7 C12.73 7 6.46 7 0 7 C0 4.69 0 2.38 0 0 Z " fill="#3B73FE" transform="translate(155,8)"/>
<path d="M0 0 C1.8125 0.125 1.8125 0.125 4 1 C8.25511425 6.47086118 7.70843024 13.42286929 7 20 C5.3126639 26.19694272 1.31756457 30.52865847 -4 34 C-10.69341278 37.3016329 -18.77327067 37.07557644 -25.75 34.75 C-28 33 -28 33 -28.875 30.8125 C-28.91625 30.214375 -28.9575 29.61625 -29 29 C-25.89169324 28.08579213 -24.34169942 27.87574567 -21.25 29 C-15.58394607 30.74340121 -10.84738878 29.95790529 -5.625 27.25 C-0.80211225 23.11609621 0.47675568 19.38238346 1.01953125 13.20703125 C0.99312829 10.22349694 0.012729 7.78500476 -1 5 C-0.625 2.125 -0.625 2.125 0 0 Z " fill="#3B73FE" transform="translate(38,9)"/>
<path d="M0 0 C1.19367187 -0.01675781 2.38734375 -0.03351562 3.6171875 -0.05078125 C7.41079715 0.34209815 9.8475402 1.41317696 13.125 3.3125 C13.125 4.6325 13.125 5.9525 13.125 7.3125 C10.51594027 8.27881842 9.43896825 8.43978443 6.8125 7.375 C2.73706461 5.76378136 -0.76341891 5.61654818 -4.9609375 7 C-9.80773523 9.16214025 -12.32961663 11.52717927 -14.875 16.3125 C-16.72221228 21.85413683 -16.01364103 26.03718546 -13.875 31.3125 C-14.25 33.625 -14.25 33.625 -14.875 35.3125 C-16.195 35.3125 -17.515 35.3125 -18.875 35.3125 C-22.9277963 30.49519895 -22.5012342 24.97152331 -22.2890625 18.98828125 C-21.54965046 12.42425552 -18.63531792 8.70808686 -13.8125 4.4375 C-8.95940788 0.92675251 -6.07972069 0.019612 0 0 Z " fill="#3B73FE" transform="translate(21.875,-0.3125)"/>
<path d="M0 0 C4.38253554 2.19126777 7.16669816 4.41674539 9 9 C9.33182949 12.03386964 9.45732817 14.97688259 9 18 C8.34 18.66 7.68 19.32 7 20 C4.875 19.625 4.875 19.625 3 19 C2.98582031 18.31292969 2.97164062 17.62585938 2.95703125 16.91796875 C2.82528018 11.32843839 2.82528018 11.32843839 -0.125 6.875 C-3.53948428 5.83580913 -6.45030331 5.79119431 -10 6 C-10.33 4.35 -10.66 2.7 -11 1 C-7.5259169 -0.73704155 -3.79843331 -0.46041616 0 0 Z " fill="#3B73FE" transform="translate(27,9)"/>
<path d="M0 0 C1.32 0.66 2.64 1.32 4 2 C3.938125 3.0725 3.87625 4.145 3.8125 5.25 C3.79148551 8.84295202 3.79148551 8.84295202 4.9375 11.375 C7.8061555 13.63515282 10.35888532 13.48418897 13.94140625 13.53125 C14.96041016 13.76328125 14.96041016 13.76328125 16 14 C17.27734375 16.03125 17.27734375 16.03125 18 18 C15.62839852 20.37160148 14.99378878 20.31983352 11.75 20.375 C6.19265865 20.24991515 3.07337704 18.07337704 -0.8125 14.1875 C-2.50430993 11.07100802 -2.87598648 8.53438522 -3 5 C-1.5625 2.0625 -1.5625 2.0625 0 0 Z " fill="#3B73FE" transform="translate(11,16)"/>
<path d="M0 0 C2.5 0.25 2.5 0.25 4.5 2.25 C3.93181818 7.81818182 3.93181818 7.81818182 2.5 9.25 C0.0625 9.4375 0.0625 9.4375 -2.5 9.25 C-4.5 7.25 -4.5 7.25 -4.75 4.75 C-4.40058445 1.25584452 -3.49415548 0.34941555 0 0 Z " fill="#3B73FE" transform="translate(22.5,17.75)"/>
<path d="M0 0 C3.96 0 7.92 0 12 0 C12 5.94 12 11.88 12 18 C11.67 18 11.34 18 11 18 C11 12.39 11 6.78 11 1 C7.7 1 4.4 1 1 1 C1 6.28 1 11.56 1 17 C0.67 17 0.34 17 0 17 C0 11.39 0 5.78 0 0 Z " fill="#5481FF" transform="translate(103,16)"/>
<path d="M0 0 C0.99 0 1.98 0 3 0 C3 5.94 3 11.88 3 18 C2.67 18 2.34 18 2 18 C1.67 16.35 1.34 14.7 1 13 C0.67 13 0.34 13 0 13 C0 8.71 0 4.42 0 0 Z " fill="#5985FF" transform="translate(209,16)"/>
<path d="M0 0 C2.97 0 5.94 0 9 0 C9 3.96 9 7.92 9 12 C8.67 12 8.34 12 8 12 C8 8.37 8 4.74 8 1 C5.69 1 3.38 1 1 1 C1 4.63 1 8.26 1 12 C0.67 12 0.34 12 0 12 C0 8.04 0 4.08 0 0 Z " fill="#507FFF" transform="translate(191,16)"/>
<path d="M0 0 C3.96 0 7.92 0 12 0 C12 0.33 12 0.66 12 1 C8.37 1 4.74 1 1 1 C1 6.94 1 12.88 1 19 C0.67 19 0.34 19 0 19 C0 12.73 0 6.46 0 0 Z " fill="#507FFF" transform="translate(230,16)"/>
<path d="M0 0 C4.95 0 9.9 0 15 0 C15 3.96 15 7.92 15 12 C14.67 12 14.34 12 14 12 C14 8.37 14 4.74 14 1 C9.38 1 4.76 1 0 1 C0 0.67 0 0.34 0 0 Z " fill="#487BFF" transform="translate(158,16)"/>
<path d="M0 0 C0.66 0 1.32 0 2 0 C2.36644578 1.55966592 2.71760862 3.12292651 3.0625 4.6875 C3.25972656 5.55761719 3.45695312 6.42773438 3.66015625 7.32421875 C4.02032279 10.16001276 3.70909969 12.24789982 3 15 C1 13 1 13 0.83984375 10.72265625 C0.87207031 9.84480469 0.90429688 8.96695312 0.9375 8.0625 C1.04422257 4.91186403 1.0099955 3.02998649 0 0 Z " fill="#3C74FE" transform="translate(35,14)"/>
<path d="M0 0 C0.99 0.33 1.98 0.66 3 1 C2.34 1 1.68 1 1 1 C1 5.62 1 10.24 1 15 C0.67 15 0.34 15 0 15 C0 10.05 0 5.1 0 0 Z " fill="#3F76FE" transform="translate(81,16)"/>
<path d="M0 0 C0.79921875 0.11085938 1.5984375 0.22171875 2.421875 0.3359375 C3.32679687 0.47902344 3.32679687 0.47902344 4.25 0.625 C3.92 1.285 3.59 1.945 3.25 2.625 C2.198125 2.46 1.14625 2.295 0.0625 2.125 C-2.95468796 1.72930322 -5.72093972 1.53321029 -8.75 1.625 C-5.5750906 -0.2828584 -3.64414789 -0.5359041 0 0 Z " fill="#3C74FE" transform="translate(24.75,6.375)"/>
<path d="M0 0 C3.3 0.99 6.6 1.98 10 3 C5.59232396 4.10191901 4.1077065 3.58706842 0 2 C0 1.34 0 0.68 0 0 Z " fill="#3C74FE" transform="translate(14,35)"/>
<path d="M0 0 C2.31 0 4.62 0 7 0 C7.33 0.66 7.66 1.32 8 2 C5.03 2 2.06 2 -1 2 C-0.67 1.34 -0.34 0.68 0 0 Z " fill="#3C74FE" transform="translate(19,27)"/>
<path d="M0 0 C0.66 0.66 1.32 1.32 2 2 C1.625 4.125 1.625 4.125 1 6 C0.34 6 -0.32 6 -1 6 C-0.67 4.02 -0.34 2.04 0 0 Z " fill="#3C74FE" transform="translate(16,18)"/>
<path d="M0 0 C0.66 0 1.32 0 2 0 C2 2.64 2 5.28 2 8 C0 6 0 6 -0.125 2.875 C-0.08375 1.92625 -0.0425 0.9775 0 0 Z " fill="#3C74FE" transform="translate(27,19)"/>
<path d="M0 0 C2.97 0 5.94 0 9 0 C8.67 0.66 8.34 1.32 8 2 C5.36 1.67 2.72 1.34 0 1 C0 0.67 0 0.34 0 0 Z " fill="#3C74FF" transform="translate(63,16)"/>
<path d="M0 0 C1.98 0 3.96 0 6 0 C4.02 0.99 4.02 0.99 2 2 C1.34 1.34 0.68 0.68 0 0 Z " fill="#3C74FE" transform="translate(18,16)"/>
<path d="M0 0 C1.65 0 3.3 0 5 0 C5 0.33 5 0.66 5 1 C3.35 1 1.7 1 0 1 C0 0.67 0 0.34 0 0 Z " fill="#3C74FE" transform="translate(24,37)"/>
<path d="M0 0 C0.66 1.32 1.32 2.64 2 4 C1.34 4 0.68 4 0 4 C0 2.68 0 1.36 0 0 Z " fill="#3C74FE" transform="translate(7,25)"/>
<path d="M0 0 C0.33 0 0.66 0 1 0 C1 1.65 1 3.3 1 5 C0.67 5 0.34 5 0 5 C0 3.35 0 1.7 0 0 Z " fill="#3C74FE" transform="translate(6,20)"/>
<path d="M0 0 C1 4 1 4 1 4 Z " fill="#4479FF" transform="translate(46,24)"/>
<path d="M0 0 C1 4 1 4 1 4 Z " fill="#4479FE" transform="translate(46,17)"/>
<path d="M0 0 C1 4 1 4 1 4 Z " fill="#3C74FE" transform="translate(7,16)"/>
<path d="M0 0 C0.66 0.66 1.32 1.32 2 2 C1.34 2 0.68 2 0 2 C0 1.34 0 0.68 0 0 Z " fill="#3C74FE" transform="translate(181,30)"/>
<path d="M0 0 C0.99 0.495 0.99 0.495 2 1 C1.01 1.495 1.01 1.495 0 2 C0 1.34 0 0.68 0 0 Z " fill="#3C74FE" transform="translate(16,25)"/>
<path d="M0 0 C0.99 0.495 0.99 0.495 2 1 C1.01 1.495 1.01 1.495 0 2 C0 1.34 0 0.68 0 0 Z " fill="#3C74FE" transform="translate(25,16)"/>
<path d="" fill="#3C74FE" transform="translate(0,0)"/>
<path d="M0 0 C0.66 0 1.32 0 2 0 C1.67 0.66 1.34 1.32 1 2 C0.67 1.34 0.34 0.68 0 0 Z " fill="#3C74FE" transform="translate(220,13)"/>
<path d="M0 0 C0.99 0.495 0.99 0.495 2 1 C1.01 1.495 1.01 1.495 0 2 C0 1.34 0 0.68 0 0 Z " fill="#3C74FE" transform="translate(181,13)"/>
<path d="M0 0 C2 1 2 1 2 1 Z " fill="#3B73FE" transform="translate(32,44)"/>
<path d="M0 0 C2 1 2 1 2 1 Z " fill="#3B73FE" transform="translate(11,44)"/>
<path d="" fill="#6088FF" transform="translate(0,0)"/>
<path d="M0 0 C2 1 2 1 2 1 Z " fill="#4C7EFF" transform="translate(200,37)"/>
<path d="M0 0 C2 1 2 1 2 1 Z " fill="#3E74FF" transform="translate(189,37)"/>
<path d="M0 0 C2 1 2 1 2 1 Z " fill="#4C7EFF" transform="translate(173,37)"/>
<path d="M0 0 C2 1 2 1 2 1 Z " fill="#4B7EFF" transform="translate(146,37)"/>
<path d="M0 0 C2 1 2 1 2 1 Z " fill="#4C7DFF" transform="translate(73,37)"/>
<path d="M0 0 C2 1 2 1 2 1 Z " fill="#4C7EFF" transform="translate(61,37)"/>
<path d="M0 0 C2 1 2 1 2 1 Z " fill="#3C74FE" transform="translate(220,35)"/>
<path d="M0 0 C2 1 2 1 2 1 Z " fill="#3E74FF" transform="translate(11,35)"/>
<path d="" fill="#3C74FE" transform="translate(0,0)"/>
<path d="" fill="#3E75FE" transform="translate(0,0)"/>
<path d="" fill="#3B73FE" transform="translate(0,0)"/>
<path d="" fill="#3E74FE" transform="translate(0,0)"/>
<path d="" fill="#3D74FF" transform="translate(0,0)"/>
<path d="" fill="#3C74FE" transform="translate(0,0)"/>
<path d="M0 0 C2 1 2 1 2 1 Z " fill="#4C7CFF" transform="translate(32,30)"/>
<path d="M0 0 C2 1 2 1 2 1 Z " fill="#3C74FE" transform="translate(8,30)"/>
<path d="" fill="#4C7EFF" transform="translate(0,0)"/>
<path d="M0 0 C2 1 2 1 2 1 Z " fill="#3C74FE" transform="translate(147,16)"/>
<path d="" fill="#3C74FE" transform="translate(0,0)"/>
<path d="" fill="#4A7CFF" transform="translate(0,0)"/>
<path d="M0 0 C2 1 2 1 2 1 Z " fill="#5C86FF" transform="translate(11,14)"/>
<path d="" fill="#3C74FE" transform="translate(0,0)"/>
<path d="" fill="#3D74FF" transform="translate(0,0)"/>
<path d="" fill="#3E75FE" transform="translate(0,0)"/>
<path d="" fill="#3B73FE" transform="translate(0,0)"/>
<path d="M0 0 C2 1 2 1 2 1 Z " fill="#4C7CFF" transform="translate(32,9)"/>
<path d="" fill="#3C74FE" transform="translate(0,0)"/>
<path d="M0 0 C2 1 2 1 2 1 Z " fill="#3D74FF" transform="translate(227,7)"/>
<path d="M0 0 C2 1 2 1 2 1 Z " fill="#3D74FF" transform="translate(213,7)"/>
<path d="M0 0 C2 1 2 1 2 1 Z " fill="#3E74FF" transform="translate(174,7)"/>
<path d="M0 0 C2 1 2 1 2 1 Z " fill="#3D74FF" transform="translate(130,7)"/>
<path d="M0 0 C2 1 2 1 2 1 Z " fill="#3E75FF" transform="translate(60,7)"/>
<path d="M0 0 C2 1 2 1 2 1 Z " fill="#3B73FE" transform="translate(32,0)"/>
<path d="M0 0 C2 1 2 1 2 1 Z " fill="#3B73FE" transform="translate(11,0)"/>
<path d="" fill="#3C74FE" transform="translate(0,0)"/>
<path d="" fill="#3C74FF" transform="translate(0,0)"/>
<path d="" fill="#3C74FE" transform="translate(0,0)"/>
<path d="" fill="#3C74FE" transform="translate(0,0)"/>
<path d="" fill="#3C74FE" transform="translate(0,0)"/>
<path d="" fill="#3C74FE" transform="translate(0,0)"/>
<path d="" fill="#3C73FE" transform="translate(0,0)"/>
<path d="" fill="#4078FF" transform="translate(0,0)"/>
<path d="" fill="#5884FF" transform="translate(0,0)"/>
<path d="" fill="#4278FF" transform="translate(0,0)"/>
<path d="" fill="#4076FF" transform="translate(0,0)"/>
<path d="" fill="#4078FF" transform="translate(0,0)"/>
<path d="" fill="#4078FF" transform="translate(0,0)"/>
<path d="" fill="#4076FF" transform="translate(0,0)"/>
<path d="" fill="#4074FF" transform="translate(0,0)"/>
<path d="" fill="#3C74FF" transform="translate(0,0)"/>
<path d="" fill="#3C74FE" transform="translate(0,0)"/>
<path d="" fill="#4074FF" transform="translate(0,0)"/>
<path d="" fill="#4076FF" transform="translate(0,0)"/>
<path d="" fill="#4074FF" transform="translate(0,0)"/>
<path d="" fill="#3C74FE" transform="translate(0,0)"/>
<path d="" fill="#3C74FF" transform="translate(0,0)"/>
<path d="" fill="#3C74FE" transform="translate(0,0)"/>
<path d="" fill="#3C74FF" transform="translate(0,0)"/>
<path d="" fill="#3C74FE" transform="translate(0,0)"/>
<path d="" fill="#4074FF" transform="translate(0,0)"/>
<path d="" fill="#3C74FE" transform="translate(0,0)"/>
<path d="" fill="#4076FF" transform="translate(0,0)"/>
<path d="" fill="#3C74FE" transform="translate(0,0)"/>
<path d="" fill="#3C74FE" transform="translate(0,0)"/>
<path d="" fill="#3C74FE" transform="translate(0,0)"/>
<path d="" fill="#4078FF" transform="translate(0,0)"/>
<path d="" fill="#3C74FF" transform="translate(0,0)"/>
<path d="" fill="#3C74FE" transform="translate(0,0)"/>
<path d="" fill="#4074FF" transform="translate(0,0)"/>
<path d="" fill="#3C74FF" transform="translate(0,0)"/>
<path d="" fill="#3C74FF" transform="translate(0,0)"/>
<path d="" fill="#3C74FF" transform="translate(0,0)"/>
<path d="" fill="#3C74FE" transform="translate(0,0)"/>
<path d="" fill="#3C74FF" transform="translate(0,0)"/>
<path d="" fill="#3C74FE" transform="translate(0,0)"/>
<path d="" fill="#3C74FE" transform="translate(0,0)"/>
<path d="" fill="#3C74FF" transform="translate(0,0)"/>
<path d="" fill="#3C74FF" transform="translate(0,0)"/>
<path d="" fill="#5280FF" transform="translate(0,0)"/>
<path d="" fill="#3C74FF" transform="translate(0,0)"/>
<path d="" fill="#3C74FF" transform="translate(0,0)"/>
<path d="" fill="#3C74FF" transform="translate(0,0)"/>
<path d="" fill="#3C74FE" transform="translate(0,0)"/>
<path d="" fill="#3C74FE" transform="translate(0,0)"/>
<path d="" fill="#4078FF" transform="translate(0,0)"/>
<path d="" fill="#3C74FE" transform="translate(0,0)"/>
<path d="" fill="#3C74FF" transform="translate(0,0)"/>
<path d="" fill="#3C74FE" transform="translate(0,0)"/>
<path d="" fill="#5884FF" transform="translate(0,0)"/>
<path d="" fill="#5884FF" transform="translate(0,0)"/>
<path d="" fill="#3C74FF" transform="translate(0,0)"/>
<path d="" fill="#4074FF" transform="translate(0,0)"/>
<path d="" fill="#3C74FE" transform="translate(0,0)"/>
<path d="" fill="#3C74FF" transform="translate(0,0)"/>
<path d="" fill="#5884FF" transform="translate(0,0)"/>
<path d="" fill="#4074FF" transform="translate(0,0)"/>
<path d="" fill="#3C74FE" transform="translate(0,0)"/>
<path d="" fill="#4074FF" transform="translate(0,0)"/>
<path d="" fill="#3C74FE" transform="translate(0,0)"/>
<path d="" fill="#3C74FF" transform="translate(0,0)"/>
<path d="" fill="#3C74FE" transform="translate(0,0)"/>
<path d="" fill="#3C74FF" transform="translate(0,0)"/>
<path d="" fill="#3C74FE" transform="translate(0,0)"/>
<path d="" fill="#3C74FE" transform="translate(0,0)"/>
<path d="" fill="#3C74FF" transform="translate(0,0)"/>
<path d="" fill="#4074FF" transform="translate(0,0)"/>
<path d="" fill="#3C74FF" transform="translate(0,0)"/>
<path d="" fill="#3C74FF" transform="translate(0,0)"/>
<path d="" fill="#4074FF" transform="translate(0,0)"/>
<path d="" fill="#3C74FF" transform="translate(0,0)"/>
<path d="" fill="#3C74FE" transform="translate(0,0)"/>
<path d="" fill="#3C74FE" transform="translate(0,0)"/>
<path d="" fill="#3C74FE" transform="translate(0,0)"/>
<path d="" fill="#3C74FE" transform="translate(0,0)"/>
<path d="" fill="#3C74FE" transform="translate(0,0)"/>
<path d="" fill="#5A86FF" transform="translate(0,0)"/>
<path d="" fill="#3E74FF" transform="translate(0,0)"/>
<path d="" fill="#3C74FE" transform="translate(0,0)"/>
<path d="" fill="#3C74FE" transform="translate(0,0)"/>
<path d="" fill="#3C74FE" transform="translate(0,0)"/>
<path d="" fill="#3C74FE" transform="translate(0,0)"/>
<path d="" fill="#4076FF" transform="translate(0,0)"/>
<path d="" fill="#4078FF" transform="translate(0,0)"/>
<path d="" fill="#3C74FF" transform="translate(0,0)"/>
<path d="" fill="#4076FF" transform="translate(0,0)"/>
<path d="" fill="#3C74FE" transform="translate(0,0)"/>
<path d="" fill="#3B73FE" transform="translate(0,0)"/>
<path d="" fill="#3C74FE" transform="translate(0,0)"/>
<path d="" fill="#3C74FF" transform="translate(0,0)"/>
<path d="" fill="#3C74FF" transform="translate(0,0)"/>
<path d="" fill="#3C74FE" transform="translate(0,0)"/>
<path d="" fill="#3C74FF" transform="translate(0,0)"/>
<path d="" fill="#3C74FF" transform="translate(0,0)"/>
<path d="" fill="#3C74FE" transform="translate(0,0)"/>
<path d="" fill="#3C74FE" transform="translate(0,0)"/>
<path d="" fill="#3C74FE" transform="translate(0,0)"/>
<path d="" fill="#4076FF" transform="translate(0,0)"/>
<path d="" fill="#3C74FE" transform="translate(0,0)"/>
<path d="" fill="#3C74FE" transform="translate(0,0)"/>
<path d="" fill="#3C74FE" transform="translate(0,0)"/>
<path d="" fill="#3C74FE" transform="translate(0,0)"/>
<path d="" fill="#3C74FE" transform="translate(0,0)"/>
<path d="" fill="#3C74FE" transform="translate(0,0)"/>
<path d="" fill="#3C74FE" transform="translate(0,0)"/>
<path d="" fill="#3C74FE" transform="translate(0,0)"/>
<path d="" fill="#3C74FF" transform="translate(0,0)"/>
<path d="" fill="#3C74FE" transform="translate(0,0)"/>
<path d="" fill="#3C74FE" transform="translate(0,0)"/>
<path d="" fill="#3C74FE" transform="translate(0,0)"/>
<path d="" fill="#3C74FF" transform="translate(0,0)"/>
<path d="" fill="#3C74FF" transform="translate(0,0)"/>
<path d="" fill="#3C74FE" transform="translate(0,0)"/>
<path d="" fill="#3C74FF" transform="translate(0,0)"/>
<path d="" fill="#3C74FF" transform="translate(0,0)"/>
<path d="" fill="#4078FF" transform="translate(0,0)"/>
<path d="" fill="#4078FF" transform="translate(0,0)"/>
<path d="" fill="#3C74FE" transform="translate(0,0)"/>
<path d="" fill="#3C74FE" transform="translate(0,0)"/>
<path d="" fill="#3E74FF" transform="translate(0,0)"/>
<path d="" fill="#4074FF" transform="translate(0,0)"/>
<path d="" fill="#3C74FE" transform="translate(0,0)"/>
<path d="" fill="#3C74FF" transform="translate(0,0)"/>
<path d="" fill="#5884FF" transform="translate(0,0)"/>
<path d="" fill="#4074FF" transform="translate(0,0)"/>
<path d="" fill="#6088FF" transform="translate(0,0)"/>
<path d="" fill="#3C74FF" transform="translate(0,0)"/>
<path d="" fill="#3C74FF" transform="translate(0,0)"/>
<path d="" fill="#3C74FF" transform="translate(0,0)"/>
<path d="" fill="#3C74FF" transform="translate(0,0)"/>
<path d="" fill="#5884FF" transform="translate(0,0)"/>
<path d="" fill="#3C74FF" transform="translate(0,0)"/>
<path d="" fill="#3C74FE" transform="translate(0,0)"/>
<path d="" fill="#3C74FF" transform="translate(0,0)"/>
<path d="" fill="#4076FF" transform="translate(0,0)"/>
</svg>
